# MagicaVoxel @ Ephtracy

# group
o 

# material
mtllib Rock.mtl
usemtl palette

# normals
vn -1 0 0
vn 1 0 0
vn 0 0 1
vn 0 0 -1
vn 0 -1 0
vn 0 1 0

# texcoords
vt 0.908203 0.5
vt 0.912109 0.5

# verts
v -0.5 0 -0.1
v -0.5 0 -0.2
v -0.5 0 -0.3
v -0.5 0.1 -0.1
v -0.5 0.1 -0.2
v -0.5 0.1 -0.3
v -0.4 0 0.5
v -0.4 0 0.4
v -0.4 0 0.3
v -0.4 0 0
v -0.4 0 -0.1
v -0.4 0 -0.3
v -0.4 0 -0.4
v -0.4 0.1 0.5
v -0.4 0.1 0.4
v -0.4 0.1 0.3
v -0.4 0.1 0
v -0.4 0.1 -0.1
v -0.4 0.1 -0.3
v -0.4 0.1 -0.4
v -0.2 0 -0.1
v -0.2 0 -0.2
v -0.2 0.1 -0.1
v -0.2 0.1 -0.2
v 0 0 0.2
v 0 0 0.1
v 0 0 0
v 0 0.1 0.2
v 0 0.1 0.1
v 0 0.1 0
v 0.1 0 0.3
v 0.1 0 0.2
v 0.1 0.1 0.3
v 0.1 0.1 0.2
v 0.2 0 -0.2
v 0.2 0 -0.4
v 0.2 0.1 -0.2
v 0.2 0.1 -0.4
v 0.3 0 -0.1
v 0.3 0 -0.2
v 0.3 0.1 -0.1
v 0.3 0.1 -0.2
v -0.3 0 0.5
v -0.3 0 0.4
v -0.3 0 0
v -0.3 0 -0.1
v -0.3 0 -0.2
v -0.3 0.1 0.5
v -0.3 0.1 0.4
v -0.3 0.1 0
v -0.3 0.1 -0.1
v -0.3 0.1 -0.2
v -0.2 0 0.4
v -0.2 0 0.3
v -0.2 0.1 0.4
v -0.2 0.1 0.3
v -0.1 0 -0.1
v -0.1 0 -0.2
v -0.1 0 -0.3
v -0.1 0 -0.4
v -0.1 0.1 -0.1
v -0.1 0.1 -0.2
v -0.1 0.1 -0.3
v -0.1 0.1 -0.4
v 0.1 0 0.2
v 0.1 0 0.1
v 0.1 0 0
v 0.1 0.1 0.2
v 0.1 0.1 0.1
v 0.1 0.1 0
v 0.2 0 0.3
v 0.2 0 0.2
v 0.2 0.1 0.3
v 0.2 0.1 0.2
v 0.5 0 -0.1
v 0.5 0 -0.2
v 0.5 0 -0.3
v 0.5 0 -0.4
v 0.5 0.1 -0.1
v 0.5 0.1 -0.2
v 0.5 0.1 -0.3
v 0.5 0.1 -0.4
v -0.4 0 0.5
v -0.4 0.1 0.5
v -0.3 0 0.5
v -0.3 0.1 0.5
v -0.3 0 0.4
v -0.3 0.1 0.4
v -0.2 0 0.4
v -0.2 0.1 0.4
v 0.1 0 0.3
v 0.1 0.1 0.3
v 0.2 0 0.3
v 0.2 0.1 0.3
v 0 0 0.2
v 0 0.1 0.2
v 0.1 0 0.2
v 0.1 0.1 0.2
v -0.4 0 0
v -0.4 0.1 0
v -0.3 0 0
v -0.3 0.1 0
v -0.5 0 -0.1
v -0.5 0.1 -0.1
v -0.4 0 -0.1
v -0.4 0.1 -0.1
v -0.2 0 -0.1
v -0.2 0.1 -0.1
v -0.1 0 -0.1
v -0.1 0.1 -0.1
v 0.3 0 -0.1
v 0.3 0.1 -0.1
v 0.4 0 -0.1
v 0.4 0.1 -0.1
v 0.5 0 -0.1
v 0.5 0.1 -0.1
v -0.3 0 -0.2
v -0.3 0.1 -0.2
v -0.2 0 -0.2
v -0.2 0.1 -0.2
v 0.2 0 -0.2
v 0.2 0.1 -0.2
v 0.3 0 -0.2
v 0.3 0.1 -0.2
v -0.4 0 0.3
v -0.4 0.1 0.3
v -0.2 0 0.3
v -0.2 0.1 0.3
v 0.1 0 0.2
v 0.1 0.1 0.2
v 0.2 0 0.2
v 0.2 0.1 0.2
v 0 0 0
v 0 0.1 0
v 0.1 0 0
v 0.1 0.1 0
v -0.5 0 -0.3
v -0.5 0.1 -0.3
v -0.4 0 -0.3
v -0.4 0.1 -0.3
v -0.4 0 -0.4
v -0.4 0.1 -0.4
v -0.3 0 -0.4
v -0.3 0.1 -0.4
v -0.1 0 -0.4
v -0.1 0.1 -0.4
v 0.2 0 -0.4
v 0.2 0.1 -0.4
v 0.3 0 -0.4
v 0.3 0.1 -0.4
v 0.4 0 -0.4
v 0.4 0.1 -0.4
v 0.5 0 -0.4
v 0.5 0.1 -0.4
v -0.4 0 0.5
v -0.3 0 0.5
v -0.4 0 0.4
v -0.3 0 0.4
v -0.2 0 0.4
v -0.4 0 0.3
v -0.2 0 0.3
v 0.1 0 0.3
v 0.2 0 0.3
v 0 0 0.2
v 0.1 0 0.2
v 0.2 0 0.2
v 0 0 0.1
v 0.1 0 0.1
v -0.4 0 0
v -0.3 0 0
v 0 0 0
v 0.1 0 0
v -0.5 0 -0.1
v -0.4 0 -0.1
v -0.3 0 -0.1
v -0.2 0 -0.1
v -0.1 0 -0.1
v 0.3 0 -0.1
v 0.4 0 -0.1
v 0.5 0 -0.1
v -0.5 0 -0.2
v -0.4 0 -0.2
v -0.3 0 -0.2
v -0.2 0 -0.2
v -0.1 0 -0.2
v 0.2 0 -0.2
v 0.3 0 -0.2
v 0.4 0 -0.2
v 0.5 0 -0.2
v -0.5 0 -0.3
v -0.4 0 -0.3
v -0.3 0 -0.3
v -0.1 0 -0.3
v 0.4 0 -0.3
v 0.5 0 -0.3
v -0.4 0 -0.4
v -0.3 0 -0.4
v -0.1 0 -0.4
v 0.2 0 -0.4
v 0.3 0 -0.4
v 0.4 0 -0.4
v 0.5 0 -0.4
v -0.4 0.1 0.5
v -0.3 0.1 0.5
v -0.4 0.1 0.4
v -0.3 0.1 0.4
v -0.2 0.1 0.4
v -0.4 0.1 0.3
v -0.2 0.1 0.3
v 0.1 0.1 0.3
v 0.2 0.1 0.3
v 0 0.1 0.2
v 0.1 0.1 0.2
v 0.2 0.1 0.2
v 0 0.1 0.1
v 0.1 0.1 0.1
v -0.4 0.1 0
v -0.3 0.1 0
v 0 0.1 0
v 0.1 0.1 0
v -0.5 0.1 -0.1
v -0.4 0.1 -0.1
v -0.3 0.1 -0.1
v -0.2 0.1 -0.1
v -0.1 0.1 -0.1
v 0.3 0.1 -0.1
v 0.4 0.1 -0.1
v 0.5 0.1 -0.1
v -0.5 0.1 -0.2
v -0.4 0.1 -0.2
v -0.3 0.1 -0.2
v -0.2 0.1 -0.2
v -0.1 0.1 -0.2
v 0.2 0.1 -0.2
v 0.3 0.1 -0.2
v 0.4 0.1 -0.2
v 0.5 0.1 -0.2
v -0.5 0.1 -0.3
v -0.4 0.1 -0.3
v -0.3 0.1 -0.3
v -0.1 0.1 -0.3
v 0.4 0.1 -0.3
v 0.5 0.1 -0.3
v -0.4 0.1 -0.4
v -0.3 0.1 -0.4
v -0.1 0.1 -0.4
v 0.2 0.1 -0.4
v 0.3 0.1 -0.4
v 0.4 0.1 -0.4
v 0.5 0.1 -0.4

# faces
f 4/2/1 2/2/1 1/2/1
f 5/1/1 3/1/1 2/1/1
f 5/2/1 2/2/1 4/2/1
f 6/1/1 3/1/1 5/1/1
f 14/1/1 8/1/1 7/1/1
f 15/2/1 9/2/1 8/2/1
f 15/1/1 8/1/1 14/1/1
f 16/2/1 9/2/1 15/2/1
f 17/2/1 11/2/1 10/2/1
f 18/2/1 11/2/1 17/2/1
f 19/1/1 13/1/1 12/1/1
f 20/1/1 13/1/1 19/1/1
f 23/2/1 22/2/1 21/2/1
f 24/2/1 22/2/1 23/2/1
f 28/1/1 26/1/1 25/1/1
f 29/2/1 27/2/1 26/2/1
f 29/1/1 26/1/1 28/1/1
f 30/2/1 27/2/1 29/2/1
f 33/1/1 32/1/1 31/1/1
f 34/1/1 32/1/1 33/1/1
f 37/2/1 36/2/1 35/2/1
f 38/2/1 36/2/1 37/2/1
f 41/1/1 40/1/1 39/1/1
f 42/1/1 40/1/1 41/1/1
f 43/1/2 44/1/2 48/1/2
f 48/1/2 44/1/2 49/1/2
f 45/2/2 46/2/2 50/2/2
f 46/1/2 47/1/2 51/1/2
f 50/2/2 46/2/2 51/2/2
f 51/1/2 47/1/2 52/1/2
f 53/2/2 54/2/2 55/2/2
f 55/2/2 54/2/2 56/2/2
f 57/2/2 58/2/2 61/2/2
f 58/1/2 59/1/2 62/1/2
f 61/2/2 58/2/2 62/2/2
f 59/2/2 60/2/2 63/2/2
f 62/1/2 59/1/2 63/1/2
f 63/2/2 60/2/2 64/2/2
f 65/1/2 66/1/2 68/1/2
f 66/2/2 67/2/2 69/2/2
f 68/1/2 66/1/2 69/1/2
f 69/2/2 67/2/2 70/2/2
f 71/1/2 72/1/2 73/1/2
f 73/1/2 72/1/2 74/1/2
f 75/2/2 76/2/2 79/2/2
f 76/1/2 77/1/2 80/1/2
f 79/2/2 76/2/2 80/2/2
f 77/2/2 78/2/2 81/2/2
f 80/1/2 77/1/2 81/1/2
f 81/2/2 78/2/2 82/2/2
f 85/1/3 84/1/3 83/1/3
f 86/1/3 84/1/3 85/1/3
f 89/2/3 88/2/3 87/2/3
f 90/2/3 88/2/3 89/2/3
f 93/1/3 92/1/3 91/1/3
f 94/1/3 92/1/3 93/1/3
f 97/1/3 96/1/3 95/1/3
f 98/1/3 96/1/3 97/1/3
f 101/2/3 100/2/3 99/2/3
f 102/2/3 100/2/3 101/2/3
f 105/2/3 104/2/3 103/2/3
f 106/2/3 104/2/3 105/2/3
f 109/2/3 108/2/3 107/2/3
f 110/2/3 108/2/3 109/2/3
f 113/1/3 112/1/3 111/1/3
f 114/1/3 112/1/3 113/1/3
f 115/2/3 114/2/3 113/2/3
f 116/2/3 114/2/3 115/2/3
f 119/1/3 118/1/3 117/1/3
f 120/1/3 118/1/3 119/1/3
f 123/2/3 122/2/3 121/2/3
f 124/2/3 122/2/3 123/2/3
f 125/2/4 126/2/4 127/2/4
f 127/2/4 126/2/4 128/2/4
f 129/1/4 130/1/4 131/1/4
f 131/1/4 130/1/4 132/1/4
f 133/2/4 134/2/4 135/2/4
f 135/2/4 134/2/4 136/2/4
f 137/1/4 138/1/4 139/1/4
f 139/1/4 138/1/4 140/1/4
f 141/1/4 142/1/4 143/1/4
f 143/1/4 142/1/4 144/1/4
f 143/2/4 144/2/4 145/2/4
f 145/2/4 144/2/4 146/2/4
f 147/2/4 148/2/4 149/2/4
f 149/2/4 148/2/4 150/2/4
f 149/1/4 150/1/4 151/1/4
f 151/1/4 150/1/4 152/1/4
f 151/2/4 152/2/4 153/2/4
f 153/2/4 152/2/4 154/2/4
f 157/1/5 156/1/5 155/1/5
f 158/1/5 156/1/5 157/1/5
f 160/2/5 158/2/5 157/2/5
f 160/2/5 159/2/5 158/2/5
f 161/2/5 159/2/5 160/2/5
f 165/1/5 163/1/5 162/1/5
f 166/1/5 163/1/5 165/1/5
f 167/1/5 165/1/5 164/1/5
f 168/1/5 165/1/5 167/1/5
f 171/2/5 168/2/5 167/2/5
f 172/2/5 168/2/5 171/2/5
f 174/2/5 170/2/5 169/2/5
f 175/2/5 170/2/5 174/2/5
f 181/2/5 174/2/5 173/2/5
f 182/1/5 175/1/5 174/1/5
f 182/2/5 174/2/5 181/2/5
f 183/1/5 175/1/5 182/1/5
f 184/2/5 177/2/5 176/2/5
f 185/2/5 177/2/5 184/2/5
f 187/1/5 179/1/5 178/1/5
f 188/2/5 180/2/5 179/2/5
f 188/1/5 179/1/5 187/1/5
f 189/2/5 180/2/5 188/2/5
f 190/1/5 183/1/5 182/1/5
f 190/1/5 185/1/5 184/1/5
f 190/1/5 182/1/5 181/1/5
f 190/1/5 184/1/5 183/1/5
f 191/1/5 185/1/5 190/1/5
f 192/1/5 185/1/5 191/1/5
f 193/1/5 185/1/5 192/1/5
f 194/1/5 189/1/5 188/1/5
f 194/1/5 188/1/5 187/1/5
f 195/1/5 189/1/5 194/1/5
f 196/1/5 192/1/5 191/1/5
f 197/2/5 193/2/5 192/2/5
f 197/1/5 192/1/5 196/1/5
f 198/2/5 193/2/5 197/2/5
f 199/2/5 187/2/5 186/2/5
f 200/1/5 194/1/5 187/1/5
f 200/2/5 187/2/5 199/2/5
f 201/2/5 195/2/5 194/2/5
f 201/1/5 194/1/5 200/1/5
f 202/2/5 195/2/5 201/2/5
f 203/1/6 204/1/6 205/1/6
f 205/1/6 204/1/6 206/1/6
f 205/2/6 206/2/6 208/2/6
f 206/2/6 207/2/6 208/2/6
f 208/2/6 207/2/6 209/2/6
f 210/1/6 211/1/6 213/1/6
f 213/1/6 211/1/6 214/1/6
f 212/1/6 213/1/6 215/1/6
f 215/1/6 213/1/6 216/1/6
f 215/2/6 216/2/6 219/2/6
f 219/2/6 216/2/6 220/2/6
f 217/2/6 218/2/6 222/2/6
f 222/2/6 218/2/6 223/2/6
f 221/2/6 222/2/6 229/2/6
f 222/1/6 223/1/6 230/1/6
f 229/2/6 222/2/6 230/2/6
f 230/1/6 223/1/6 231/1/6
f 224/2/6 225/2/6 232/2/6
f 232/2/6 225/2/6 233/2/6
f 226/1/6 227/1/6 235/1/6
f 227/2/6 228/2/6 236/2/6
f 235/1/6 227/1/6 236/1/6
f 236/2/6 228/2/6 237/2/6
f 230/1/6 231/1/6 238/1/6
f 232/1/6 233/1/6 238/1/6
f 229/1/6 230/1/6 238/1/6
f 231/1/6 232/1/6 238/1/6
f 238/1/6 233/1/6 239/1/6
f 239/1/6 233/1/6 240/1/6
f 240/1/6 233/1/6 241/1/6
f 236/1/6 237/1/6 242/1/6
f 235/1/6 236/1/6 242/1/6
f 242/1/6 237/1/6 243/1/6
f 239/1/6 240/1/6 244/1/6
f 240/2/6 241/2/6 245/2/6
f 244/1/6 240/1/6 245/1/6
f 245/2/6 241/2/6 246/2/6
f 234/2/6 235/2/6 247/2/6
f 235/1/6 242/1/6 248/1/6
f 247/2/6 235/2/6 248/2/6
f 242/2/6 243/2/6 249/2/6
f 248/1/6 242/1/6 249/1/6
f 249/2/6 243/2/6 250/2/6
